<svg xmlns="http://www.w3.org/2000/svg" width="18.257" height="25.379" viewBox="0 0 18.257 25.379">
  <g id="account" transform="translate(-1873.99 -27.401)">
    <path id="Subtraction_1" data-name="Subtraction1" d="M-6885.553-4562.853c-.467,0-.975-.023-1.513-.047-.613-.028-1.376-.063-2.2-.063-.549,0-1.049.007-1.491.013-.364,0-.777.01-1.153.01-2.329,0-3.677-.24-5.044-1.607-1.916-1.915-1.916-3.854,0-7.686.144-.288.285-.575.453-.917.25-.507.533-1.083.808-1.613a9.457,9.457,0,0,0,6.424,2.507,9.461,9.461,0,0,0,6.427-2.509c.279.537.558,1.1.8,1.606l.051.1c.133.27.269.547.406.82,1.927,3.854,1.927,5.363,0,7.686A4.474,4.474,0,0,1-6885.553-4562.853Z" transform="translate(8772.384 4615.632)" fill="#435c71"/>
    <ellipse id="Ellipse_40" data-name="Ellipse 40" cx="6.488" cy="6.488" rx="6.488" ry="6.488" transform="translate(1876.626 27.401)" fill="#435c71"/>
  </g>
</svg>
