<svg id="Calque_1" data-name="Calque1" xmlns="http://www.w3.org/2000/svg" viewBox="0 0 100 50"><defs><style>.cls-1{fill:#016fd0;}.cls-2{fill:#b2b2b2;}</style></defs><g id="layer1"><path id="path3046" class="cls-1" d="M14,12.1l-4,9.38h2.63l.74-1.88H17.7l.74,1.88h2.69l-4-9.38Zm1.49,2.18,1.32,3.29H14.21Z"/><path id="path3048" class="cls-1" d="M21.4,21.48V12.1h3.74l2.17,6.05,2.12-6.06h3.7v9.38H30.79V14.57L28.3,21.48H26.24l-2.49-6.91v6.91Z"/><path id="path3050" class="cls-1" d="M34.74,21.48V12.1h7.65v2.1H37.11v1.6h5.16v2H37.11v1.66h5.28v2Z"/><path id="path3052" class="cls-1" d="M43.75,12.1v9.38H46.1V18.15h1l2.82,3.33h2.86L49.68,18a2.87,2.87,0,0,0,2.57-2.89,3,3,0,0,0-3.28-3Zm2.35,2.1h2.68a1.08,1.08,0,0,1,1.11,1,1.06,1.06,0,0,1-1.08,1H46.1v-2Z"/><path id="path3054" class="cls-1" d="M55.6,21.48H53.21V12.1H55.6Z"/><path id="path3056" class="cls-1" d="M61.28,21.48h-.51c-2.51,0-4-2-4-4.65s1.51-4.73,4.67-4.73H64v2.22H61.31a2.26,2.26,0,0,0-2.19,2.53,2.3,2.3,0,0,0,2.53,2.58h.62Z"/><path id="path3058" class="cls-1" d="M66.39,12.1l-4,9.38H65l.74-1.88h4.33l.74,1.88h2.69l-4-9.38Zm1.49,2.18,1.32,3.29H66.56l1.32-3.29Z"/><path id="path3060" class="cls-1" d="M73.75,21.48V12.1h3L80.54,18V12.1h2.35v9.38H80l-3.9-6.05v6.05Z"/><path id="path3062" class="cls-1" d="M27.08,37.9V28.52h7.66v2.1H29.45v1.6h5.16v2H29.45v1.66h5.29v2Z"/><path id="path3064" class="cls-1" d="M64.59,37.9V28.52h7.66v2.1H67v1.6H72.1v2H67v1.66h5.29v2Z"/><path id="path3066" class="cls-1" d="M35,37.9l3.72-4.63L35,28.52H37.9l2.27,2.93,2.28-2.93h2.84l-3.76,4.69,3.73,4.69H42.31L40.1,35,38,37.9Z"/><path id="path3068" class="cls-1" d="M45.54,28.52V37.9H48v-3h2.47c2.09,0,3.67-1.11,3.67-3.26a3.09,3.09,0,0,0-3.37-3.16ZM48,30.64h2.6a1.07,1.07,0,0,1,1.16,1.08,1.08,1.08,0,0,1-1.17,1.08H48V30.64Z"/><path id="path3072" class="cls-1" d="M55.11,28.52V37.9h2.34V34.57h1l2.82,3.33h2.86L61,34.44a2.85,2.85,0,0,0,2.57-2.88,3,3,0,0,0-3.28-3Zm2.34,2.1h2.69a1.08,1.08,0,0,1,1.11,1,1.06,1.06,0,0,1-1.08,1H57.45Z"/><path id="path3074" class="cls-1" d="M73.33,37.9v-2H78c.69,0,1-.37,1-.78s-.3-.8-1-.8H75.9A2.62,2.62,0,0,1,73,31.47c0-1.5.94-2.95,3.68-2.95h4.57l-1,2.11h-4c-.75,0-1,.4-1,.77a.81.81,0,0,0,.86.82h2.22c2.06,0,3,1.17,3,2.69a2.81,2.81,0,0,1-3.06,3Z"/><path id="path3076" class="cls-1" d="M81.94,37.9v-2h4.7c.69,0,1-.37,1-.78s-.3-.8-1-.8H84.51a2.62,2.62,0,0,1-2.87-2.81c0-1.5.94-2.95,3.68-2.95h4.57l-1,2.11H85c-.75,0-1,.4-1,.77a.81.81,0,0,0,.86.82h2.22c2.06,0,3,1.17,3,2.69a2.81,2.81,0,0,1-3.06,3Z"/></g><path class="cls-2" d="M98,2V48H2V2H98m2-2H0V50H100V0Z"/></svg>