<svg xmlns="http://www.w3.org/2000/svg" width="507.247" height="419.667" viewBox="0 0 507.247 419.667">
  <g id="background_icons_left_online" transform="translate(38.167 -95.333)">
    <g id="Path_123" data-name="Path123" transform="translate(-149.206 -32.5)" fill="#9fffd9" stroke-linecap="round" stroke-linejoin="round" stroke-miterlimit="10">
      <path d="M 290.9252319335938 224.5 L 290.0592041015625 224.5 L 245.6032409667969 224.5 L 244.7372131347656 224.5 L 244.3042144775391 223.75 L 222.0762023925781 185.2499847412109 L 221.6431884765625 184.4999847412109 L 222.0762023925781 183.7499847412109 L 244.3042144775391 145.2499847412109 L 244.7372131347656 144.4999847412109 L 245.6032409667969 144.4999847412109 L 290.0592041015625 144.4999847412109 L 290.9252319335938 144.4999847412109 L 291.3582458496094 145.2499847412109 L 313.5862121582031 183.7499847412109 L 314.0192260742188 184.4999847412109 L 313.5862121582031 185.2499847412109 L 291.3582458496094 223.75 L 290.9252319335938 224.5 Z" stroke="none"/>
      <path d="M 245.6032409667969 145.9999847412109 L 223.375244140625 184.4999847412109 L 245.6032409667969 223 L 290.0592041015625 223 L 312.2871704101563 184.4999847412109 L 290.0592041015625 145.9999847412109 L 245.6032409667969 145.9999847412109 M 245.6032409667969 142.9999847412109 L 290.0592041015625 142.9999847412109 C 291.1310119628906 142.9999847412109 292.1213989257813 143.57177734375 292.6572875976563 144.4999847412109 L 314.88525390625 182.9999847412109 C 315.421142578125 183.9281768798828 315.421142578125 185.07177734375 314.88525390625 185.9999847412109 L 292.6572875976563 224.5 C 292.1213989257813 225.4282073974609 291.1310119628906 226 290.0592041015625 226 L 245.6032409667969 226 C 244.5314331054688 226 243.5410766601563 225.4282073974609 243.0051574707031 224.5 L 220.7771606445313 185.9999847412109 C 220.2412719726563 185.07177734375 220.2412719726563 183.9281768798828 220.7771606445313 182.9999847412109 L 243.0051574707031 144.4999847412109 C 243.5410766601563 143.57177734375 244.5314331054688 142.9999847412109 245.6032409667969 142.9999847412109 Z" stroke="none" fill="#a5acb2"/>
    </g>
    <g id="Path_125" data-name="Path 125" transform="translate(-76.207 61.5)" fill="#b2feff" stroke-linecap="round" stroke-linejoin="round" stroke-miterlimit="10">
      <path d="M 290.9252319335938 224.5 L 290.0592041015625 224.5 L 245.6032409667969 224.5 L 244.7372131347656 224.5 L 244.3042144775391 223.75 L 222.0762023925781 185.2499847412109 L 221.6431884765625 184.4999847412109 L 222.0762023925781 183.7499847412109 L 244.3042144775391 145.2499847412109 L 244.7372131347656 144.4999847412109 L 245.6032409667969 144.4999847412109 L 290.0592041015625 144.4999847412109 L 290.9252319335938 144.4999847412109 L 291.3582458496094 145.2499847412109 L 313.5862121582031 183.7499847412109 L 314.0192260742188 184.4999847412109 L 313.5862121582031 185.2499847412109 L 291.3582458496094 223.75 L 290.9252319335938 224.5 Z" stroke="none"/>
      <path d="M 245.6032409667969 145.9999847412109 L 223.375244140625 184.4999847412109 L 245.6032409667969 223 L 290.0592041015625 223 L 312.2871704101563 184.4999847412109 L 290.0592041015625 145.9999847412109 L 245.6032409667969 145.9999847412109 M 245.6032409667969 142.9999847412109 L 290.0592041015625 142.9999847412109 C 291.1310119628906 142.9999847412109 292.1213989257813 143.57177734375 292.6572875976563 144.4999847412109 L 314.88525390625 182.9999847412109 C 315.421142578125 183.9281768798828 315.421142578125 185.07177734375 314.88525390625 185.9999847412109 L 292.6572875976563 224.5 C 292.1213989257813 225.4282073974609 291.1310119628906 226 290.0592041015625 226 L 245.6032409667969 226 C 244.5314331054688 226 243.5410766601563 225.4282073974609 243.0051574707031 224.5 L 220.7771606445313 185.9999847412109 C 220.2412719726563 185.07177734375 220.2412719726563 183.9281768798828 220.7771606445313 182.9999847412109 L 243.0051574707031 144.4999847412109 C 243.5410766601563 143.57177734375 244.5314331054688 142.9999847412109 245.6032409667969 142.9999847412109 Z" stroke="none" fill="#a5acb2"/>
    </g>
    <g id="Path_126" data-name="Path 126" transform="translate(-175.207 133.5)" fill="#fff0b7" stroke-linecap="round" stroke-linejoin="round" stroke-miterlimit="10">
      <path d="M 290.9252319335938 224.5 L 290.0592041015625 224.5 L 245.6032409667969 224.5 L 244.7372131347656 224.5 L 244.3042144775391 223.75 L 222.0762023925781 185.2499847412109 L 221.6431884765625 184.4999847412109 L 222.0762023925781 183.7499847412109 L 244.3042144775391 145.2499847412109 L 244.7372131347656 144.4999847412109 L 245.6032409667969 144.4999847412109 L 290.0592041015625 144.4999847412109 L 290.9252319335938 144.4999847412109 L 291.3582458496094 145.2499847412109 L 313.5862121582031 183.7499847412109 L 314.0192260742188 184.4999847412109 L 313.5862121582031 185.2499847412109 L 291.3582458496094 223.75 L 290.9252319335938 224.5 Z" stroke="none"/>
      <path d="M 245.6032409667969 145.9999847412109 L 223.375244140625 184.4999847412109 L 245.6032409667969 223 L 290.0592041015625 223 L 312.2871704101563 184.4999847412109 L 290.0592041015625 145.9999847412109 L 245.6032409667969 145.9999847412109 M 245.6032409667969 142.9999847412109 L 290.0592041015625 142.9999847412109 C 291.1310119628906 142.9999847412109 292.1213989257813 143.57177734375 292.6572875976563 144.4999847412109 L 314.88525390625 182.9999847412109 C 315.421142578125 183.9281768798828 315.421142578125 185.07177734375 314.88525390625 185.9999847412109 L 292.6572875976563 224.5 C 292.1213989257813 225.4282073974609 291.1310119628906 226 290.0592041015625 226 L 245.6032409667969 226 C 244.5314331054688 226 243.5410766601563 225.4282073974609 243.0051574707031 224.5 L 220.7771606445313 185.9999847412109 C 220.2412719726563 185.07177734375 220.2412719726563 183.9281768798828 220.7771606445313 182.9999847412109 L 243.0051574707031 144.4999847412109 C 243.5410766601563 143.57177734375 244.5314331054688 142.9999847412109 245.6032409667969 142.9999847412109 Z" stroke="none" fill="#a5acb2"/>
    </g>
    <g id="Path_127" data-name="Path 127" transform="translate(-151.207 270.5)" fill="#ffc8fa" stroke-linecap="round" stroke-linejoin="round" stroke-miterlimit="10">
      <path d="M 290.9252319335938 224.5 L 290.0592041015625 224.5 L 245.6032409667969 224.5 L 244.7372131347656 224.5 L 244.3042144775391 223.75 L 222.0762023925781 185.2499847412109 L 221.6431884765625 184.4999847412109 L 222.0762023925781 183.7499847412109 L 244.3042144775391 145.2499847412109 L 244.7372131347656 144.4999847412109 L 245.6032409667969 144.4999847412109 L 290.0592041015625 144.4999847412109 L 290.9252319335938 144.4999847412109 L 291.3582458496094 145.2499847412109 L 313.5862121582031 183.7499847412109 L 314.0192260742188 184.4999847412109 L 313.5862121582031 185.2499847412109 L 291.3582458496094 223.75 L 290.9252319335938 224.5 Z" stroke="none"/>
      <path d="M 245.6032409667969 145.9999847412109 L 223.375244140625 184.4999847412109 L 245.6032409667969 223 L 290.0592041015625 223 L 312.2871704101563 184.4999847412109 L 290.0592041015625 145.9999847412109 L 245.6032409667969 145.9999847412109 M 245.6032409667969 142.9999847412109 L 290.0592041015625 142.9999847412109 C 291.1310119628906 142.9999847412109 292.1213989257813 143.57177734375 292.6572875976563 144.4999847412109 L 314.88525390625 182.9999847412109 C 315.421142578125 183.9281768798828 315.421142578125 185.07177734375 314.88525390625 185.9999847412109 L 292.6572875976563 224.5 C 292.1213989257813 225.4282073974609 291.1310119628906 226 290.0592041015625 226 L 245.6032409667969 226 C 244.5314331054688 226 243.5410766601563 225.4282073974609 243.0051574707031 224.5 L 220.7771606445313 185.9999847412109 C 220.2412719726563 185.07177734375 220.2412719726563 183.9281768798828 220.7771606445313 182.9999847412109 L 243.0051574707031 144.4999847412109 C 243.5410766601563 143.57177734375 244.5314331054688 142.9999847412109 245.6032409667969 142.9999847412109 Z" stroke="none" fill="#a5acb2"/>
    </g>
    <g id="Path_128" data-name="Path 128" transform="translate(-51.207 190.5)" fill="#ffc2c2" stroke-linecap="round" stroke-linejoin="round" stroke-miterlimit="10">
      <path d="M 290.9252319335938 224.5 L 290.0592041015625 224.5 L 245.6032409667969 224.5 L 244.7372131347656 224.5 L 244.3042144775391 223.75 L 222.0762023925781 185.2499847412109 L 221.6431884765625 184.4999847412109 L 222.0762023925781 183.7499847412109 L 244.3042144775391 145.2499847412109 L 244.7372131347656 144.4999847412109 L 245.6032409667969 144.4999847412109 L 290.0592041015625 144.4999847412109 L 290.9252319335938 144.4999847412109 L 291.3582458496094 145.2499847412109 L 313.5862121582031 183.7499847412109 L 314.0192260742188 184.4999847412109 L 313.5862121582031 185.2499847412109 L 291.3582458496094 223.75 L 290.9252319335938 224.5 Z" stroke="none"/>
      <path d="M 245.6032409667969 145.9999847412109 L 223.375244140625 184.4999847412109 L 245.6032409667969 223 L 290.0592041015625 223 L 312.2871704101563 184.4999847412109 L 290.0592041015625 145.9999847412109 L 245.6032409667969 145.9999847412109 M 245.6032409667969 142.9999847412109 L 290.0592041015625 142.9999847412109 C 291.1310119628906 142.9999847412109 292.1213989257813 143.57177734375 292.6572875976563 144.4999847412109 L 314.88525390625 182.9999847412109 C 315.421142578125 183.9281768798828 315.421142578125 185.07177734375 314.88525390625 185.9999847412109 L 292.6572875976563 224.5 C 292.1213989257813 225.4282073974609 291.1310119628906 226 290.0592041015625 226 L 245.6032409667969 226 C 244.5314331054688 226 243.5410766601563 225.4282073974609 243.0051574707031 224.5 L 220.7771606445313 185.9999847412109 C 220.2412719726563 185.07177734375 220.2412719726563 183.9281768798828 220.7771606445313 182.9999847412109 L 243.0051574707031 144.4999847412109 C 243.5410766601563 143.57177734375 244.5314331054688 142.9999847412109 245.6032409667969 142.9999847412109 Z" stroke="none" fill="#a5acb2"/>
    </g>
    <g id="Path_129" data-name="Path 129" transform="translate(16.793 -33.5)" fill="#ffc8fa" stroke-linecap="round" stroke-linejoin="round" stroke-miterlimit="10">
      <path d="M 290.9252319335938 224.5 L 290.0592041015625 224.5 L 245.6032409667969 224.5 L 244.7372131347656 224.5 L 244.3042144775391 223.75 L 222.0762023925781 185.2499847412109 L 221.6431884765625 184.4999847412109 L 222.0762023925781 183.7499847412109 L 244.3042144775391 145.2499847412109 L 244.7372131347656 144.4999847412109 L 245.6032409667969 144.4999847412109 L 290.0592041015625 144.4999847412109 L 290.9252319335938 144.4999847412109 L 291.3582458496094 145.2499847412109 L 313.5862121582031 183.7499847412109 L 314.0192260742188 184.4999847412109 L 313.5862121582031 185.2499847412109 L 291.3582458496094 223.75 L 290.9252319335938 224.5 Z" stroke="none"/>
      <path d="M 245.6032409667969 145.9999847412109 L 223.375244140625 184.4999847412109 L 245.6032409667969 223 L 290.0592041015625 223 L 312.2871704101563 184.4999847412109 L 290.0592041015625 145.9999847412109 L 245.6032409667969 145.9999847412109 M 245.6032409667969 142.9999847412109 L 290.0592041015625 142.9999847412109 C 291.1310119628906 142.9999847412109 292.1213989257813 143.57177734375 292.6572875976563 144.4999847412109 L 314.88525390625 182.9999847412109 C 315.421142578125 183.9281768798828 315.421142578125 185.07177734375 314.88525390625 185.9999847412109 L 292.6572875976563 224.5 C 292.1213989257813 225.4282073974609 291.1310119628906 226 290.0592041015625 226 L 245.6032409667969 226 C 244.5314331054688 226 243.5410766601563 225.4282073974609 243.0051574707031 224.5 L 220.7771606445313 185.9999847412109 C 220.2412719726563 185.07177734375 220.2412719726563 183.9281768798828 220.7771606445313 182.9999847412109 L 243.0051574707031 144.4999847412109 C 243.5410766601563 143.57177734375 244.5314331054688 142.9999847412109 245.6032409667969 142.9999847412109 Z" stroke="none" fill="#a5acb2"/>
    </g>
    <g id="_012-unlock" data-name="012-unlock" transform="translate(11.869 294.333)">
      <g id="Group_190" data-name="Group 190" transform="translate(63.772)">
        <path id="Path_124" data-name="Path 124" d="M95.765,19.406H93.877V12.758A12.772,12.772,0,0,0,81.12,0h0A12.772,12.772,0,0,0,68.362,12.758v.137h4.552v-.137a8.18,8.18,0,0,1,2.406-5.8,8.268,8.268,0,0,1,1.215-1,8.164,8.164,0,0,1,4.584-1.4h0a8.214,8.214,0,0,1,8.205,8.206v6.648H66.474a2.7,2.7,0,0,0-2.7,2.7V44.151a2.7,2.7,0,0,0,2.7,2.7H95.765a2.7,2.7,0,0,0,2.7-2.7V22.108A2.7,2.7,0,0,0,95.765,19.406ZM83.827,38.432H78.412l.969-4.618a3.25,3.25,0,1,1,3.476,0Z" transform="translate(-63.772)" fill="#435c71"/>
      </g>
    </g>
    <path id="Path_136" data-name="Path 136" d="M-2787.333,2528h84.667" transform="translate(2775 -2376)" fill="none" stroke="#a5acb2" stroke-linecap="round" stroke-width="3"/>
    <path id="Path_139" data-name="Path 139" d="M-2782.667,2724h82.835" transform="translate(2746 -2406)" fill="none" stroke="#a5acb2" stroke-linecap="round" stroke-width="3"/>
    <path id="Path_140" data-name="Path 140" d="M-2783.333,2566.045h76l17.333-27.712h81l38.667,53.667H-2538" transform="translate(2775 -2441.5)" fill="none" stroke="#a5acb2" stroke-linecap="round" stroke-linejoin="round" stroke-width="3"/>
    <g id="_006-shield" data-name="006-shield" transform="translate(55.4 122.448)">
      <g id="Group_196" data-name="Group 196" transform="translate(37.7)">
        <g id="Group_195" data-name="Group 195">
          <path id="Path_157" data-name="Path 157" d="M87.188,10.2A98.156,98.156,0,0,1,63.535.173a1.229,1.229,0,0,0-1.258,0A95.621,95.621,0,0,1,38.612,10.2a1.237,1.237,0,0,0-.912,1.2V24.1A36.58,36.58,0,0,0,48.794,50.8c5.449,5.345,11.8,8.3,14.106,8.3s8.658-2.955,14.106-8.3A36.535,36.535,0,0,0,88.1,24.1v-12.7A1.237,1.237,0,0,0,87.188,10.2Z" transform="translate(-37.7)" fill="#435c71"/>
          <path id="Path_158" data-name="Path 158" d="M89.558,99.738a1.248,1.248,0,0,0-1.616-.7c-2.216.877-4.5,1.685-6.776,2.39a1.24,1.24,0,0,0-.866,1.189v4.8a1.247,1.247,0,0,0,2.493,0v-3.89c2.043-.658,4.075-1.385,6.072-2.17A1.247,1.247,0,0,0,89.558,99.738Z" transform="translate(-75.382 -87.525)" fill="#435c71"/>
          <path id="Path_159" data-name="Path 159" d="M171.422,88.682a1.277,1.277,0,0,0,.5-.1l.023-.012a1.243,1.243,0,0,0-1-2.274l-.023.012a1.235,1.235,0,0,0-.635,1.639A1.248,1.248,0,0,0,171.422,88.682Z" transform="translate(-154.879 -76.237)" fill="#435c71"/>
          <path id="Path_160" data-name="Path 160" d="M312.644,345.718a1.233,1.233,0,0,0-1.72.358,30.352,30.352,0,0,1-3.579,4.467,32,32,0,0,1-3.567,3.174,1.248,1.248,0,0,0-.231,1.743,1.224,1.224,0,0,0,.993.485,1.2,1.2,0,0,0,.75-.254,33.739,33.739,0,0,0,3.844-3.417A32.5,32.5,0,0,0,313,347.449,1.245,1.245,0,0,0,312.644,345.718Z" transform="translate(-272.634 -305.627)" fill="#435c71"/>
          <path id="Path_161" data-name="Path 161" d="M277.332,432.112l-.069.046a1.245,1.245,0,0,0-.45,1.7,1.227,1.227,0,0,0,1.7.45l.081-.046a1.245,1.245,0,0,0,.45-1.7A1.261,1.261,0,0,0,277.332,432.112Z" transform="translate(-249.061 -382.082)" fill="#435c71"/>
          <path id="Path_162" data-name="Path 162" d="M167.533,176.65a1.555,1.555,0,1,1,2.193,2.2l-15.307,15.319a1.561,1.561,0,0,1-2.193,0l-7.342-7.342a1.555,1.555,0,0,1,2.193-2.2l5.356,5.356a1.262,1.262,0,0,0,.877.369,1.214,1.214,0,0,0,.877-.369Z" transform="translate(-132.105 -155.86)" fill="#435c71"/>
        </g>
      </g>
    </g>
    <g id="_005-shield" data-name="005-shield" transform="translate(58.466 126.001)">
      <g id="Group_194" data-name="Group 194" transform="translate(37.681 0)">
        <g id="Group_193" data-name="Group 193">
          <path id="Path_151" data-name="Path 151" d="M81.221,8.979A86.5,86.5,0,0,1,60.41.152a1.093,1.093,0,0,0-1.112,0A84.128,84.128,0,0,1,38.486,8.979a1.094,1.094,0,0,0-.8,1.055V21.21A32.152,32.152,0,0,0,47.445,44.7c4.8,4.7,10.381,7.3,12.409,7.3s7.614-2.6,12.409-7.3A32.152,32.152,0,0,0,82.026,21.21V10.034A1.094,1.094,0,0,0,81.221,8.979ZM79.838,21.21a30.008,30.008,0,0,1-9.107,21.929c-4.716,4.62-9.757,6.672-10.878,6.672s-6.163-2.052-10.878-6.672A30.009,30.009,0,0,1,39.869,21.21V10.864a86.144,86.144,0,0,0,19.985-8.5,88.87,88.87,0,0,0,19.984,8.5Z" transform="translate(-37.681 0)" fill="#9fffd9"/>
          <path id="Path_152" data-name="Path 152" d="M88.473,99.636a1.094,1.094,0,0,0-1.419-.617c-1.954.77-3.96,1.479-5.961,2.106a1.094,1.094,0,0,0-.766,1.044v4.224a1.094,1.094,0,1,0,2.188,0v-3.425c1.8-.581,3.589-1.223,5.342-1.914A1.093,1.093,0,0,0,88.473,99.636Z" transform="translate(-75.996 -88.894)" fill="#9fffd9"/>
          <path id="Path_153" data-name="Path 153" d="M171.3,88.4a1.094,1.094,0,0,0,.439-.092l.02-.009a1.094,1.094,0,1,0-.883-2l-.018.008A1.093,1.093,0,0,0,171.3,88.4Z" transform="translate(-156.743 -77.45)" fill="#9fffd9"/>
          <path id="Path_154" data-name="Path 154" d="M311.556,345.706a1.094,1.094,0,0,0-1.514.317,26.625,26.625,0,0,1-3.143,3.926,27.945,27.945,0,0,1-3.137,2.791,1.094,1.094,0,1,0,1.326,1.74,30.144,30.144,0,0,0,3.384-3.01,28.784,28.784,0,0,0,3.4-4.25A1.094,1.094,0,0,0,311.556,345.706Z" transform="translate(-276.351 -310.436)" fill="#9fffd9"/>
          <path id="Path_155" data-name="Path 155" d="M277.172,432.116l-.063.037a1.094,1.094,0,1,0,1.1,1.893l.072-.043a1.094,1.094,0,1,0-1.105-1.887Z" transform="translate(-252.303 -388.095)" fill="#9fffd9"/>
          <path id="Path_156" data-name="Path 156" d="M128.891,162.665a3.557,3.557,0,1,0-5.03,5.03l6.459,6.459a3.558,3.558,0,0,0,5.03,0l13.483-13.483a3.557,3.557,0,0,0-5.03-5.03l-10.968,10.968Zm16.459-5.478a1.369,1.369,0,1,1,1.936,1.936L133.8,172.607a1.37,1.37,0,0,1-1.937,0l-6.459-6.458a1.369,1.369,0,0,1,1.936-1.937l4.717,4.717a1.094,1.094,0,0,0,1.547,0Z" transform="translate(-114.174 -138.898)" fill="#9fffd9"/>
        </g>
      </g>
    </g>
    <g id="_010-wifi" data-name="010-wifi" transform="translate(257.962 128.657)">
      <path id="Path_215" data-name="Path 215" d="M215.753,360.324a4.753,4.753,0,1,0,4.753,4.753A4.758,4.758,0,0,0,215.753,360.324Zm0,0" transform="translate(-188.715 -321.82)" fill="#435c71"/>
      <path id="Path_216" data-name="Path 216" d="M27.038.5A41.959,41.959,0,0,0,.6,9.719a1.587,1.587,0,0,0-.255,2.227l2.206,2.778a1.571,1.571,0,0,0,2.225.229,36.786,36.786,0,0,1,45.191-.74,1.584,1.584,0,0,0,2.191-.281l1.576-1.985a1.587,1.587,0,0,0-.255-2.227A41.959,41.959,0,0,0,27.038.5Zm0,0" transform="translate(0)" fill="#435c71"/>
      <path id="Path_217" data-name="Path 217" d="M92.638,120.457a29.759,29.759,0,0,0-18.719,6.511,1.58,1.58,0,0,0-.227,2.2l2.2,2.772a1.589,1.589,0,0,0,2.255.217,24.445,24.445,0,0,1,29.683-.7,1.584,1.584,0,0,0,2.171-.3l1.581-1.991a1.587,1.587,0,0,0-.255-2.227,29.758,29.758,0,0,0-18.691-6.488Zm0,0" transform="translate(-65.6 -107.287)" fill="#435c71"/>
      <path id="Path_218" data-name="Path 218" d="M148.326,244.918a1.565,1.565,0,0,0-.194,2.178l2.2,2.767a1.554,1.554,0,0,0,2.191.271,11.673,11.673,0,0,1,14.09-.626,1.549,1.549,0,0,0,2.061-.37l1.621-2.042a1.566,1.566,0,0,0-.2-2.178,17.776,17.776,0,0,0-21.769,0Zm0,0" transform="translate(-132.173 -215.275)" fill="#435c71"/>
    </g>
    <g id="Path_227" data-name="Path 227" transform="translate(40.793 99.5)" fill="#fff0b7" stroke-linecap="round" stroke-linejoin="round" stroke-miterlimit="10">
      <path d="M 290.9252319335938 224.5 L 290.0592041015625 224.5 L 245.6032409667969 224.5 L 244.7372131347656 224.5 L 244.3042144775391 223.75 L 222.0762023925781 185.2499847412109 L 221.6431884765625 184.4999847412109 L 222.0762023925781 183.7499847412109 L 244.3042144775391 145.2499847412109 L 244.7372131347656 144.4999847412109 L 245.6032409667969 144.4999847412109 L 290.0592041015625 144.4999847412109 L 290.9252319335938 144.4999847412109 L 291.3582458496094 145.2499847412109 L 313.5862121582031 183.7499847412109 L 314.0192260742188 184.4999847412109 L 313.5862121582031 185.2499847412109 L 291.3582458496094 223.75 L 290.9252319335938 224.5 Z" stroke="none"/>
      <path d="M 245.6032409667969 145.9999847412109 L 223.375244140625 184.4999847412109 L 245.6032409667969 223 L 290.0592041015625 223 L 312.2871704101563 184.4999847412109 L 290.0592041015625 145.9999847412109 L 245.6032409667969 145.9999847412109 M 245.6032409667969 142.9999847412109 L 290.0592041015625 142.9999847412109 C 291.1310119628906 142.9999847412109 292.1213989257813 143.57177734375 292.6572875976563 144.4999847412109 L 314.88525390625 182.9999847412109 C 315.421142578125 183.9281768798828 315.421142578125 185.07177734375 314.88525390625 185.9999847412109 L 292.6572875976563 224.5 C 292.1213989257813 225.4282073974609 291.1310119628906 226 290.0592041015625 226 L 245.6032409667969 226 C 244.5314331054688 226 243.5410766601563 225.4282073974609 243.0051574707031 224.5 L 220.7771606445313 185.9999847412109 C 220.2412719726563 185.07177734375 220.2412719726563 183.9281768798828 220.7771606445313 182.9999847412109 L 243.0051574707031 144.4999847412109 C 243.5410766601563 143.57177734375 244.5314331054688 142.9999847412109 245.6032409667969 142.9999847412109 Z" stroke="none" fill="#a5acb2"/>
    </g>
    <g id="headphones" transform="translate(189 325.469)">
      <g id="Group_208" data-name="Group 208" transform="translate(0 24.136)">
        <path id="Path_228" data-name="Path 228" d="M27.657,24.136a27.787,27.787,0,0,0-24.3,41.026V57.816A5.926,5.926,0,0,1,4.683,54.13q-.1-1.1-.106-2.209A23.252,23.252,0,0,1,27.657,28.713,23.188,23.188,0,0,1,50.626,54.365a5.869,5.869,0,0,1,1.149,3.451v7.718a27.79,27.79,0,0,0-24.118-41.4Z" transform="translate(0 -24.136)" fill="#435c71"/>
        <path id="Path_229" data-name="Path 229" d="M43.179,274.311A4.049,4.049,0,0,0,43,275.5v10.375c0,3.2,3.814,5.8,8.518,5.8H55.1V269.7H51.518C47.411,269.7,43.984,271.678,43.179,274.311Z" transform="translate(-38.118 -241.817)" fill="#435c71"/>
        <path id="Path_230" data-name="Path 230" d="M348.042,285.873V275.5a4.015,4.015,0,0,0-.071-.738c-.533-2.854-4.11-5.06-8.447-5.06h-3.586v21.971h3.587C344.228,291.671,348.042,289.075,348.042,285.873Z" transform="translate(-297.793 -241.817)" fill="#435c71"/>
      </g>
    </g>
    <path id="gamepad" d="M54.253,82.088c-.272-6.185-2.039-13.8-4.622-18.352C43.65,53,36.649,59.182,27.541,59.93h-.816C17.617,59.115,10.616,53,4.635,63.736,2.12,68.223.353,75.9.013,82.088c-.68,15.021,7.817,10.875,15.769,3.4,4.962-4.69,17.74-4.69,22.7,0C46.437,93.032,54.933,97.11,54.253,82.088ZM17.617,73.8h-.952v1.02a2.787,2.787,0,0,1-5.574,0v-.952h-.952a2.787,2.787,0,0,1,0-5.574h.952v-.952a2.787,2.787,0,1,1,5.574-.068v.952h.952a2.787,2.787,0,0,1,0,5.574Zm16.789-.34a2.4,2.4,0,0,1-2.447-2.447,2.447,2.447,0,1,1,2.447,2.447Zm5.03,5.03a2.447,2.447,0,1,1,2.447-2.447A2.437,2.437,0,0,1,39.436,78.486Zm0-10.06a2.437,2.437,0,0,1-2.447-2.447,2.481,2.481,0,0,1,2.447-2.447,2.447,2.447,0,0,1,0,4.894Zm5.03,5.03a2.4,2.4,0,0,1-2.447-2.447,2.447,2.447,0,1,1,2.447,2.447Z" transform="translate(281.692 209.52)" fill="#435c71"/>
    <g id="Path_231" data-name="Path 231" transform="translate(75.793 239.5)" fill="#9fffd9" stroke-linecap="round" stroke-linejoin="round" stroke-miterlimit="10">
      <path d="M 290.9252319335938 224.5 L 290.0592041015625 224.5 L 245.6032409667969 224.5 L 244.7372131347656 224.5 L 244.3042144775391 223.75 L 222.0762023925781 185.2499847412109 L 221.6431884765625 184.4999847412109 L 222.0762023925781 183.7499847412109 L 244.3042144775391 145.2499847412109 L 244.7372131347656 144.4999847412109 L 245.6032409667969 144.4999847412109 L 290.0592041015625 144.4999847412109 L 290.9252319335938 144.4999847412109 L 291.3582458496094 145.2499847412109 L 313.5862121582031 183.7499847412109 L 314.0192260742188 184.4999847412109 L 313.5862121582031 185.2499847412109 L 291.3582458496094 223.75 L 290.9252319335938 224.5 Z" stroke="none"/>
      <path d="M 245.6032409667969 145.9999847412109 L 223.375244140625 184.4999847412109 L 245.6032409667969 223 L 290.0592041015625 223 L 312.2871704101563 184.4999847412109 L 290.0592041015625 145.9999847412109 L 245.6032409667969 145.9999847412109 M 245.6032409667969 142.9999847412109 L 290.0592041015625 142.9999847412109 C 291.1310119628906 142.9999847412109 292.1213989257813 143.57177734375 292.6572875976563 144.4999847412109 L 314.88525390625 182.9999847412109 C 315.421142578125 183.9281768798828 315.421142578125 185.07177734375 314.88525390625 185.9999847412109 L 292.6572875976563 224.5 C 292.1213989257813 225.4282073974609 291.1310119628906 226 290.0592041015625 226 L 245.6032409667969 226 C 244.5314331054688 226 243.5410766601563 225.4282073974609 243.0051574707031 224.5 L 220.7771606445313 185.9999847412109 C 220.2412719726563 185.07177734375 220.2412719726563 183.9281768798828 220.7771606445313 182.9999847412109 L 243.0051574707031 144.4999847412109 C 243.5410766601563 143.57177734375 244.5314331054688 142.9999847412109 245.6032409667969 142.9999847412109 Z" stroke="none" fill="#a5acb2"/>
    </g>
    <g id="_002-phone-1" data-name="002-phone-1" transform="translate(321.625 402.625)">
      <g id="Group_210" data-name="Group 210" transform="translate(22.375 11.934)">
        <g id="Group_209" data-name="Group 209">
          <path id="Path_232" data-name="Path 232" d="M241.492,128a1.492,1.492,0,0,0,0,2.983,5.973,5.973,0,0,1,5.967,5.967,1.492,1.492,0,0,0,2.983,0A8.961,8.961,0,0,0,241.492,128Z" transform="translate(-240 -128)" fill="#435c71"/>
        </g>
      </g>
      <g id="Group_212" data-name="Group 212" transform="translate(22.375 5.967)">
        <g id="Group_211" data-name="Group 211">
          <path id="Path_233" data-name="Path 233" d="M241.492,64a1.492,1.492,0,0,0,0,2.983,11.946,11.946,0,0,1,11.934,11.934,1.492,1.492,0,0,0,2.983,0A14.934,14.934,0,0,0,241.492,64Z" transform="translate(-240 -64)" fill="#435c71"/>
        </g>
      </g>
      <g id="Group_214" data-name="Group 214" transform="translate(22.375)">
        <g id="Group_213" data-name="Group 213">
          <path id="Path_234" data-name="Path 234" d="M241.492,0a1.492,1.492,0,0,0,0,2.983,17.918,17.918,0,0,1,17.9,17.9,1.492,1.492,0,0,0,2.983,0A20.909,20.909,0,0,0,241.492,0Z" transform="translate(-240)" fill="#435c71"/>
        </g>
      </g>
      <g id="Group_216" data-name="Group 216" transform="translate(0 2.983)">
        <g id="Group_215" data-name="Group 215">
          <path id="Path_235" data-name="Path 235" d="M40.276,61.834a27.689,27.689,0,0,1-12.262-2.8,1.464,1.464,0,0,0-1.143-.069,1.5,1.5,0,0,0-.856.761L23.67,64.579A37.52,37.52,0,0,1,9.195,50.1l4.851-2.351a1.49,1.49,0,0,0,.689-2,27.689,27.689,0,0,1-2.8-12.262A1.492,1.492,0,0,0,10.442,32H1.492A1.492,1.492,0,0,0,0,33.492,40.321,40.321,0,0,0,40.276,73.767a1.492,1.492,0,0,0,1.492-1.492v-8.95A1.492,1.492,0,0,0,40.276,61.834Z" transform="translate(0 -32)" fill="#435c71"/>
        </g>
      </g>
    </g>
    <g id="_004-cloud-computing" data-name="004-cloud-computing" transform="translate(101.467 215.897)">
      <g id="Group_217" data-name="Group 217" transform="translate(67.3)">
        <path id="Path_236" data-name="Path 236" d="M101.654,33.208a11.328,11.328,0,0,0,10.385-11.367,11.464,11.464,0,0,0-8.346-11.053A12.893,12.893,0,0,0,90.916,0,13.023,13.023,0,0,0,79.674,6.5a7.006,7.006,0,0,0-1.36-.126,7.114,7.114,0,0,0-6.949,8.573A9.875,9.875,0,0,0,67.3,22.9c0,5.312,4.267,10.046,9.315,10.323h24.963A.187.187,0,0,0,101.654,33.208Z" transform="translate(-67.3)" fill="#435c71"/>
        <path id="Path_237" data-name="Path 237" d="M215.185,297.3a1.241,1.241,0,0,0-1.246,1.246v14.6a4.3,4.3,0,0,0,1.146,8.409h.1a4.3,4.3,0,0,0,1.246-8.409v-14.6A1.241,1.241,0,0,0,215.185,297.3Zm1.309,18.719a1.8,1.8,0,0,1-1.3,3.046h-.05a1.8,1.8,0,0,1,.038-3.6h.05A1.737,1.737,0,0,1,216.494,316.019Z" transform="translate(-192.815 -259.875)" fill="#435c71"/>
        <path id="Path_238" data-name="Path 238" d="M82.275,298.546v6.987a2.179,2.179,0,0,1-2.178,2.178H76.422a4.305,4.305,0,1,0,0,2.493H80.1a4.677,4.677,0,0,0,4.67-4.67v-6.987a1.246,1.246,0,0,0-2.493,0Zm-9.97,12.223a1.813,1.813,0,1,1,1.813-1.813A1.813,1.813,0,0,1,72.305,310.77Z" transform="translate(-67.912 -259.875)" fill="#435c71"/>
        <path id="Path_239" data-name="Path 239" d="M293.47,310.3h3.676a4.305,4.305,0,1,0,0-2.492H293.47a2.179,2.179,0,0,1-2.178-2.178v-6.987a1.246,1.246,0,0,0-2.493,0v6.987A4.677,4.677,0,0,0,293.47,310.3Zm7.792-3.059a1.813,1.813,0,1,1-1.813,1.813A1.813,1.813,0,0,1,301.263,307.244Z" transform="translate(-260.917 -259.962)" fill="#435c71"/>
      </g>
    </g>
    <g id="zoom-in" transform="translate(92.217 424.412) rotate(9)">
      <path id="Path_240" data-name="Path 240" d="M347.252,341.7l-7.452,7.1,11.691,9.546a3.656,3.656,0,0,0,2.32.831A3.612,3.612,0,0,0,356.4,358.1a3.655,3.655,0,0,0,.246-4.906Z" transform="translate(-304.923 -306.628)" fill="#435c71"/>
      <path id="Path_241" data-name="Path 241" d="M283.693,276.2a21.4,21.4,0,0,1-3.264,4.219,20.848,20.848,0,0,1-4.229,3.274,5.791,5.791,0,0,0,1.765,2.443l2.361,1.93,7.9-7.534-2.094-2.576a5.831,5.831,0,0,0-2.443-1.755Z" transform="translate(-247.851 -247.851)" fill="#435c71"/>
      <path id="Path_242" data-name="Path 242" d="M0,17.8A17.818,17.818,0,0,0,30.4,30.392,17.811,17.811,0,0,0,5.214,5.2,17.694,17.694,0,0,0,0,17.8Z" transform="translate(0)" fill="#435c71"/>
    </g>
    <g id="Path_243" data-name="Path 243" transform="translate(133.793 19.5)" fill="#ffc2c2" stroke-linecap="round" stroke-linejoin="round" stroke-miterlimit="10">
      <path d="M 290.9252319335938 224.5 L 290.0592041015625 224.5 L 245.6032409667969 224.5 L 244.7372131347656 224.5 L 244.3042144775391 223.75 L 222.0762023925781 185.2499847412109 L 221.6431884765625 184.4999847412109 L 222.0762023925781 183.7499847412109 L 244.3042144775391 145.2499847412109 L 244.7372131347656 144.4999847412109 L 245.6032409667969 144.4999847412109 L 290.0592041015625 144.4999847412109 L 290.9252319335938 144.4999847412109 L 291.3582458496094 145.2499847412109 L 313.5862121582031 183.7499847412109 L 314.0192260742188 184.4999847412109 L 313.5862121582031 185.2499847412109 L 291.3582458496094 223.75 L 290.9252319335938 224.5 Z" stroke="none"/>
      <path d="M 245.6032409667969 145.9999847412109 L 223.375244140625 184.4999847412109 L 245.6032409667969 223 L 290.0592041015625 223 L 312.2871704101563 184.4999847412109 L 290.0592041015625 145.9999847412109 L 245.6032409667969 145.9999847412109 M 245.6032409667969 142.9999847412109 L 290.0592041015625 142.9999847412109 C 291.1310119628906 142.9999847412109 292.1213989257813 143.57177734375 292.6572875976563 144.4999847412109 L 314.88525390625 182.9999847412109 C 315.421142578125 183.9281768798828 315.421142578125 185.07177734375 314.88525390625 185.9999847412109 L 292.6572875976563 224.5 C 292.1213989257813 225.4282073974609 291.1310119628906 226 290.0592041015625 226 L 245.6032409667969 226 C 244.5314331054688 226 243.5410766601563 225.4282073974609 243.0051574707031 224.5 L 220.7771606445313 185.9999847412109 C 220.2412719726563 185.07177734375 220.2412719726563 183.9281768798828 220.7771606445313 182.9999847412109 L 243.0051574707031 144.4999847412109 C 243.5410766601563 143.57177734375 244.5314331054688 142.9999847412109 245.6032409667969 142.9999847412109 Z" stroke="none" fill="#a5acb2"/>
    </g>
    <g id="Path_244" data-name="Path 244" transform="translate(153.793 167.5)" fill="#b2feff" stroke-linecap="round" stroke-linejoin="round" stroke-miterlimit="10">
      <path d="M 290.9252319335938 224.5 L 290.0592041015625 224.5 L 245.6032409667969 224.5 L 244.7372131347656 224.5 L 244.3042144775391 223.75 L 222.0762023925781 185.2499847412109 L 221.6431884765625 184.4999847412109 L 222.0762023925781 183.7499847412109 L 244.3042144775391 145.2499847412109 L 244.7372131347656 144.4999847412109 L 245.6032409667969 144.4999847412109 L 290.0592041015625 144.4999847412109 L 290.9252319335938 144.4999847412109 L 291.3582458496094 145.2499847412109 L 313.5862121582031 183.7499847412109 L 314.0192260742188 184.4999847412109 L 313.5862121582031 185.2499847412109 L 291.3582458496094 223.75 L 290.9252319335938 224.5 Z" stroke="none"/>
      <path d="M 245.6032409667969 145.9999847412109 L 223.375244140625 184.4999847412109 L 245.6032409667969 223 L 290.0592041015625 223 L 312.2871704101563 184.4999847412109 L 290.0592041015625 145.9999847412109 L 245.6032409667969 145.9999847412109 M 245.6032409667969 142.9999847412109 L 290.0592041015625 142.9999847412109 C 291.1310119628906 142.9999847412109 292.1213989257813 143.57177734375 292.6572875976563 144.4999847412109 L 314.88525390625 182.9999847412109 C 315.421142578125 183.9281768798828 315.421142578125 185.07177734375 314.88525390625 185.9999847412109 L 292.6572875976563 224.5 C 292.1213989257813 225.4282073974609 291.1310119628906 226 290.0592041015625 226 L 245.6032409667969 226 C 244.5314331054688 226 243.5410766601563 225.4282073974609 243.0051574707031 224.5 L 220.7771606445313 185.9999847412109 C 220.2412719726563 185.07177734375 220.2412719726563 183.9281768798828 220.7771606445313 182.9999847412109 L 243.0051574707031 144.4999847412109 C 243.5410766601563 143.57177734375 244.5314331054688 142.9999847412109 245.6032409667969 142.9999847412109 Z" stroke="none" fill="#a5acb2"/>
    </g>
    <g id="_004-mail" data-name="004-mail" transform="translate(395.5 268.125)">
      <g id="Group_219" data-name="Group 219" transform="translate(0 64)">
        <g id="Group_218" data-name="Group 218">
          <path id="Path_245" data-name="Path 245" d="M7.3,67.225c7.274,6.16,20.038,17,23.79,20.378a2.216,2.216,0,0,0,3.206,0c3.755-3.383,16.519-14.222,23.793-20.382a1.1,1.1,0,0,0,.155-1.524A4.385,4.385,0,0,0,54.782,64H10.615a4.385,4.385,0,0,0-3.466,1.7A1.1,1.1,0,0,0,7.3,67.225Z" transform="translate(-6.198 -64)" fill="#435c71"/>
          <path id="Path_246" data-name="Path 246" d="M355.68,126.514a1.1,1.1,0,0,0-1.177.16c-4.764,4.038-11.041,9.374-15.774,13.445a1.1,1.1,0,0,0,.03,1.7c4.4,3.523,11.027,8.369,15.813,11.813a1.1,1.1,0,0,0,1.749-.9V127.516A1.1,1.1,0,0,0,355.68,126.514Z" transform="translate(-303.319 -119.951)" fill="#435c71"/>
          <path id="Path_247" data-name="Path 247" d="M1.749,153.639c4.788-3.444,11.417-8.29,15.814-11.813a1.1,1.1,0,0,0,.03-1.7c-4.734-4.072-11.012-9.407-15.776-13.445A1.1,1.1,0,0,0,0,127.524v25.218a1.1,1.1,0,0,0,1.749.9Z" transform="translate(0 -119.959)" fill="#435c71"/>
          <path id="Path_248" data-name="Path 248" d="M59.378,298.462c-4.623-3.307-13.138-9.473-18.221-13.6a1.107,1.107,0,0,0-1.421.025c-1,.87-1.832,1.6-2.424,2.136a4.471,4.471,0,0,1-6.164,0c-.59-.532-1.424-1.267-2.422-2.134a1.1,1.1,0,0,0-1.42-.025c-5.066,4.112-13.591,10.285-18.221,13.6a1.1,1.1,0,0,0-.166,1.65,4.424,4.424,0,0,0,3.229,1.417H56.315a4.43,4.43,0,0,0,3.23-1.417,1.1,1.1,0,0,0-.166-1.65Z" transform="translate(-7.731 -261.778)" fill="#435c71"/>
        </g>
      </g>
    </g>
    <g id="Network" transform="translate(366.71 165.682)">
      <path id="Path_249" data-name="Path 249" d="M61.1,31.657a5.683,5.683,0,0,0-5.611,4.757c-.024,0-.059-.012-.083-.012h-1.9c-.012,0-.036.012-.047.012a16.1,16.1,0,0,0-4.045-9.762c.012-.012.012-.012.024-.012l3.8-3.8a.793.793,0,0,0,.19-.3A3.822,3.822,0,1,0,52.182,21.3a.974.974,0,0,0-.3.19l-3.8,3.8c-.012,0-.012.012-.012.024a16.035,16.035,0,0,0-9.762-4.045c0-.012.012-.036.012-.047v-3.8a.279.279,0,0,0-.024-.095,4.748,4.748,0,1,0-1.862,0c-.012.036-.012.059-.024.095v3.8c0,.012.012.036.012.047a16.1,16.1,0,0,0-9.762,4.045c-.012-.012-.012-.012-.012-.024l-8.54-8.54a.793.793,0,0,0-.3-.19A3.779,3.779,0,1,0,16.585,17.8a.974.974,0,0,0,.19.3l8.54,8.54c0,.012.012.012.024.012a16.035,16.035,0,0,0-4.045,9.762c-.012,0-.036-.012-.047-.012h-1.9c-.024,0-.059.012-.083.012a5.7,5.7,0,1,0,0,1.874c.024,0,.059.012.083.012h1.9c.012,0,.036-.012.047-.012a15.988,15.988,0,0,0,4,9.7.8.8,0,0,0,.166.178,16.022,16.022,0,0,0,10.984,5.255c0,.012-.012.036-.012.047v3.8a.279.279,0,0,0,.024.095,4.748,4.748,0,1,0,1.862,0c.012-.036.012-.059.024-.095v-3.8c0-.012-.012-.036-.012-.047a16.1,16.1,0,0,0,9.762-4.045c.012.012.012.012.012.024l3.8,3.8a.793.793,0,0,0,.3.19,3.822,3.822,0,1,0,1.245-1.245.974.974,0,0,0-.19-.3l-3.8-3.8h0l.036-.071a15.975,15.975,0,0,0,3.986-9.7c.012,0,.036.012.047.012h1.9c.024,0,.059-.012.083-.012a5.693,5.693,0,1,0,5.6-6.619ZM55.408,17.422a1.9,1.9,0,1,1-1.9,1.9A1.9,1.9,0,0,1,55.408,17.422Zm-40.8-.949a1.9,1.9,0,1,1,1.9-1.9A1.9,1.9,0,0,1,14.6,16.474Zm-.949,24.672a3.8,3.8,0,1,1,3.8-3.8A3.792,3.792,0,0,1,13.655,41.146ZM55.408,53.482a1.9,1.9,0,1,1-1.9,1.9A1.9,1.9,0,0,1,55.408,53.482Zm-20.877-40.8a2.847,2.847,0,1,1,2.847,2.847A2.84,2.84,0,0,1,34.532,12.678Zm5.694,49.345a2.847,2.847,0,1,1-2.847-2.847h0A2.84,2.84,0,0,1,40.225,62.023Zm8.991-16.784a12.385,12.385,0,0,0-6.939-8.2,6.044,6.044,0,0,0,1.744-4.424,6.643,6.643,0,1,0-13.285,0,5.952,5.952,0,0,0,1.744,4.424,12.412,12.412,0,0,0-6.939,8.2,14.232,14.232,0,1,1,23.676,0ZM61.1,41.146a3.8,3.8,0,1,1,3.8-3.8A3.792,3.792,0,0,1,61.1,41.146Z" transform="translate(0 0)" fill="#435c71"/>
      <path id="Path_250" data-name="Path 250" d="M33.762,392.328l-3.8,3.8a.793.793,0,0,0-.19.3,3.822,3.822,0,1,0,1.245,1.245.975.975,0,0,0,.3-.19l3.8-3.8a.957.957,0,0,0-1.352-1.352ZM27.8,401.544a1.9,1.9,0,1,1,1.9-1.9A1.9,1.9,0,0,1,27.8,401.544Z" transform="translate(-14.141 -338.573)" fill="#435c71"/>
      <path id="Path_251" data-name="Path 251" d="M122.026,360.317l-1.9,1.9a.948.948,0,0,0,1.317,1.364l.024-.024,1.9-1.9a.948.948,0,0,0-1.34-1.34Z" transform="translate(-98.609 -310.358)" fill="#435c71"/>
    </g>
    <path id="Path_252" data-name="Path 252" d="M-2784,2612.5h67.5l30,35.5h58" transform="translate(2774 -2402)" fill="none" stroke="#a5acb2" stroke-linecap="round" stroke-linejoin="round" stroke-width="3"/>
    <path id="Path_253" data-name="Path 253" d="M-2790,2835h87.5" transform="translate(2772 -2380)" fill="none" stroke="#a5acb2" stroke-linecap="round" stroke-width="3"/>
    <path id="Path_254" data-name="Path 254" d="M-2795,2808.5h74.5l25.013-39.013H-2621l29.5,52.013h63.5l52.563-93.375h75.75" transform="translate(2775 -2376)" fill="none" stroke="#a5acb2" stroke-linecap="round" stroke-linejoin="round" stroke-width="3"/>
    <path id="Path_258" data-name="Path 258" d="M-2786,2857h76.5l19,32.5H-2545l49-90h18.333" transform="translate(2775 -2376)" fill="none" stroke="#a5acb2" stroke-linecap="round" stroke-linejoin="round" stroke-width="3"/>
    <path id="Path_259" data-name="Path 259" d="M-2792,2637.667h149l30.667,53.333h60.667l18.667-31h21" transform="translate(2775 -2376)" fill="none" stroke="#a5acb2" stroke-linecap="round" stroke-linejoin="round" stroke-width="3"/>
    <path id="Path_260" data-name="Path 260" d="M-2790.5,2558.5h77.5l19,27h73l25.5-44.5h46l23,39.5h107" transform="translate(2775 -2376)" fill="none" stroke="#a5acb2" stroke-linecap="round" stroke-linejoin="round" stroke-width="3"/>
    <path id="Path_261" data-name="Path 261" d="M-2797.667,2778h69l17.333-26.333H-2605" transform="translate(2775 -2377)" fill="none" stroke="#a5acb2" stroke-linecap="round" stroke-linejoin="round" stroke-width="3"/>
  </g>
</svg>
