<svg id="Calque_1" data-name="Calque1" xmlns="http://www.w3.org/2000/svg" xmlns:xlink="http://www.w3.org/1999/xlink" viewBox="0 0 100 50"><defs><style>.cls-1{fill:#201d1c;}.cls-2{fill:url(#Dégradé_sans_nom_17);}.cls-3{fill:#b2b2b2;}</style><linearGradient id="Dégradé_sans_nom_17" x1="49.3" y1="19.67" x2="55.38" y2="30.2" gradientUnits="userSpaceOnUse"><stop offset="0" stop-color="#8e271c"/><stop offset="0.28" stop-color="#e34a1e"/><stop offset="0.72" stop-color="#f27b14"/><stop offset="1" stop-color="#f59314"/></linearGradient></defs><g id="g14"><g id="g16"><path id="path22" class="cls-1" d="M17,28.05a4.67,4.67,0,0,1-3.38,1H13V20.69h.66a4.56,4.56,0,0,1,3.38,1,4.24,4.24,0,0,1,1.37,3.15A4.32,4.32,0,0,1,17,28.05Zm-2.88-9.51H10.53V31.2h3.61a6.55,6.55,0,0,0,4.51-1.46A6.32,6.32,0,0,0,21,24.88c0-3.73-2.79-6.34-6.79-6.34"/><path id="path24" class="cls-1" d="M22.09,31.2h2.47V18.54H22.09Z"/><path id="path26" class="cls-1" d="M30.6,23.4c-1.49-.55-1.92-.91-1.92-1.59s.77-1.41,1.84-1.41a2.56,2.56,0,0,1,2,1l1.29-1.69a5.53,5.53,0,0,0-3.72-1.41A3.72,3.72,0,0,0,26.13,22c0,1.75.8,2.64,3.12,3.47a10,10,0,0,1,1.71.72,1.53,1.53,0,0,1,.74,1.31,1.81,1.81,0,0,1-1.92,1.79,2.93,2.93,0,0,1-2.7-1.69L25.49,29.1a4.92,4.92,0,0,0,4.38,2.41,4.09,4.09,0,0,0,4.37-4.16c0-2-.83-2.92-3.64-4"/><path id="path28" class="cls-1" d="M35,24.88a6.56,6.56,0,0,0,6.68,6.61,6.79,6.79,0,0,0,3.09-.74V27.84a3.93,3.93,0,0,1-3,1.39,4.14,4.14,0,0,1-4.25-4.37,4.2,4.2,0,0,1,4.14-4.34,4.12,4.12,0,0,1,3.09,1.42V19a6.27,6.27,0,0,0-3-.78A6.65,6.65,0,0,0,35,24.88"/><path id="path30" class="cls-1" d="M64.37,27.05,61,18.54H58.3l5.37,13H65l5.47-13H67.79l-3.42,8.51"/><path id="path32" class="cls-1" d="M71.59,31.2h7V29.06H74.05V25.64h4.37V23.5H74.05V20.69h4.54V18.54h-7V31.2"/><path id="path34" class="cls-1" d="M83.41,24.37h-.72V20.54h.76c1.54,0,2.38.64,2.38,1.87S85,24.37,83.41,24.37Zm5-2.09c0-2.37-1.64-3.74-4.48-3.74H80.22V31.2h2.47V26.12H83l3.42,5.08h3l-4-5.33a3.37,3.37,0,0,0,2.89-3.59"/></g></g><circle class="cls-2" cx="52.38" cy="25.01" r="6.73"/><path class="cls-3" d="M98,2V48H2V2H98m2-2H0V50H100V0Z"/></svg>