<?xml version="1.0" encoding="utf-8"?>
<!-- Generator: Adobe Illustrator 24.0.1, SVG Export Plug-In . SVG Version: 6.00 Build 0)  -->
<svg version="1.1" id="Layer_1" xmlns="http://www.w3.org/2000/svg" xmlns:xlink="http://www.w3.org/1999/xlink" x="0px" y="0px"
	 viewBox="0 0 89.2 41.5" style="enable-background:new 0 0 89.2 41.5;" xml:space="preserve">
<style type="text/css">
	.st0{ fill:none; }
	.st1{ fill:#435C71; }
</style>
<g>
	<rect x="30.5" y="20.3" class="st0" width="6.6" height="15.7"/>
	<rect x="4" y="15" class="st0" width="15.4" height="21"/>
	<path class="st0" d="M83.9,4H49c-0.7,0-1.3,0.6-1.3,1.3v24.9c0,0.7,0.6,1.3,1.3,1.3h34.9c0.7,0,1.3-0.6,1.3-1.3V5.3
		C85.2,4.6,84.6,4,83.9,4z"/>
	<path class="st1" d="M37.3,16.3h-7.1c-2.1,0-3.8,1.7-3.8,3.8v17.7c0,2.1,1.7,3.8,3.8,3.8h7.1c2.1,0,3.8-1.7,3.8-3.8V20
		C41.1,18,39.4,16.3,37.3,16.3z M37.1,20.3v15.7h-6.6V20.3H37.1z"/>
	<path class="st1" d="M83.9,0H49c-2.9,0-5.3,2.4-5.3,5.3v24.9c0,2.9,2.4,5.3,5.3,5.3h15v0.6h-3.3c-1.8,0-3.3,1.5-3.3,3.3h18.3
		c0-1.8-1.5-3.3-3.3-3.3H69v-0.6h15c2.9,0,5.3-2.4,5.3-5.3V5.3C89.2,2.4,86.8,0,83.9,0z M85.2,30.3c0,0.7-0.6,1.3-1.3,1.3H49
		c-0.7,0-1.3-0.6-1.3-1.3V5.3C47.7,4.6,48.3,4,49,4h34.9c0.7,0,1.3,0.6,1.3,1.3V30.3z"/>
	<path class="st1" d="M19.7,11H3.8C1.7,11,0,12.6,0,14.7v23c0,2.1,1.7,3.8,3.8,3.8h15.9c2.1,0,3.8-1.7,3.8-3.8v-23
		C23.4,12.6,21.7,11,19.7,11z M19.4,15v21H4V15H19.4z"/>
</g>
</svg>
