<svg xmlns="http://www.w3.org/2000/svg" width="25" height="25" viewBox="0 0 25 25">
  <g id="input-email" transform="translate(-513 -691)">
    <rect id="Rectangle_46" data-name="Rectangle46" width="25" height="25" transform="translate(513 691)" fill="rgba(255,255,255,0)"/>
    <g id="envelope" transform="translate(516 696)">
      <g id="Group_66" data-name="Group 66" transform="translate(0 0)">
        <path id="Path_49" data-name="Path 49" d="M16.681,57.75H2.323A2.37,2.37,0,0,0,0,60.16V70.34a2.37,2.37,0,0,0,2.323,2.41H16.677A2.37,2.37,0,0,0,19,70.34V60.164A2.368,2.368,0,0,0,16.681,57.75Zm1.262,12.59a1.288,1.288,0,0,1-1.262,1.309H2.323A1.288,1.288,0,0,1,1.061,70.34V60.164a1.288,1.288,0,0,1,1.262-1.309H16.677a1.288,1.288,0,0,1,1.262,1.309V70.34Z" transform="translate(0 -57.75)" fill="#435c71"/>
        <path id="Path_50" data-name="Path 50" d="M65.088,113.959l4.431-4.134a.544.544,0,0,0,.037-.745.5.5,0,0,0-.716-.039l-6.11,5.706-1.192-1.108s-.007-.008-.007-.012a.758.758,0,0,0-.082-.074L56.6,109.037a.492.492,0,0,0-.716.043.541.541,0,0,0,.041.745l4.483,4.169-4.464,4.349a.544.544,0,0,0-.022.745.508.508,0,0,0,.371.168.5.5,0,0,0,.345-.14l4.532-4.411,1.23,1.143a.49.49,0,0,0,.675,0l1.263-1.178,4.506,4.454a.494.494,0,0,0,.716-.02.544.544,0,0,0-.019-.745Z" transform="translate(-53.22 -106.579)" fill="#435c71"/>
      </g>
    </g>
  </g>
</svg>
