<svg id="latest" xmlns="http://www.w3.org/2000/svg" width="57.126" height="61.521" viewBox="0 0 57.126 61.521">
  <g id="Group_142" data-name="Group 142" transform="translate(0)">
    <g id="Group_141" data-name="Group 141" transform="translate(0)">
      <path id="Path_63" data-name="Path63" d="M67.6,0a2.2,2.2,0,0,0-2.2,2.2v8.026A28.508,28.508,0,0,0,17.067,30.761a2.2,2.2,0,1,0,4.394,0,24.169,24.169,0,0,1,42-16.314l-9.733,3.245a2.2,2.2,0,0,0,1.389,4.175L68.3,17.472a2.2,2.2,0,0,0,1.5-2.092V2.2A2.2,2.2,0,0,0,67.6,0Z" transform="translate(-17.067)" fill="#435c71"/>
    </g>
  </g>
  <g id="Group_144" data-name="Group 144" transform="translate(4.394 28.563)">
    <g id="Group_143" data-name="Group 143">
      <path id="Path_64" data-name="Path 64" d="M101.733,221.867a2.2,2.2,0,0,0-2.2,2.2,24.169,24.169,0,0,1-42,16.314l9.733-3.245a2.2,2.2,0,1,0-1.389-4.175L52.7,237.353a2.2,2.2,0,0,0-1.5,2.092v13.183a2.2,2.2,0,1,0,4.394,0V244.6a28.508,28.508,0,0,0,48.338-20.537A2.2,2.2,0,0,0,101.733,221.867Z" transform="translate(-51.198 -221.867)" fill="#435c71"/>
    </g>
  </g>
</svg>
