<svg id="Calque_1" data-name="Calque1" xmlns="http://www.w3.org/2000/svg" viewBox="0 0 100 50"><defs><style>.cls-1{fill:#6c6bbd;}.cls-2{fill:#eb001b;}.cls-3{fill:#0099df;}.cls-4{fill:#231f20;}.cls-5{fill:#b2b2b2;}</style></defs><path class="cls-1" d="M57,33.39H43.05V8.4H57Z"/><path class="cls-2" d="M43.94,20.89A15.84,15.84,0,0,1,50,8.4a15.9,15.9,0,1,0,0,25,15.86,15.86,0,0,1-6.07-12.5"/><path class="cls-3" d="M75.71,20.89A15.9,15.9,0,0,1,50,33.39a15.9,15.9,0,0,0,0-25A15.9,15.9,0,0,1,75.71,20.89"/><path class="cls-4" d="M61.64,40.45a1.89,1.89,0,0,1,.65.11l-.28.87a1.48,1.48,0,0,0-.57-.11c-.6,0-.9.39-.9,1.09v2.36h-.92V40.55h.91v.52a1.25,1.25,0,0,1,1.11-.62m-3.39.94h-1.5V43.3c0,.42.15.71.61.71a1.72,1.72,0,0,0,.81-.24l.26.78a2.09,2.09,0,0,1-1.14.33c-1.09,0-1.47-.58-1.47-1.56V41.39H55v-.84h.86V39.27h.93v1.28h1.5Zm-11.75.9a1.07,1.07,0,0,1,1.12-1,1.05,1.05,0,0,1,1.07,1Zm3.14.37a2,2,0,0,0-2-2.21,2.06,2.06,0,0,0-2.11,2.21,2.09,2.09,0,0,0,2.17,2.22,2.58,2.58,0,0,0,1.73-.59L49,43.61a2.06,2.06,0,0,1-1.23.44,1.17,1.17,0,0,1-1.26-1h3.13c0-.12,0-.23,0-.36m4-1a2.66,2.66,0,0,0-1.31-.36c-.5,0-.8.18-.8.49s.31.37.71.42l.43.06c.92.13,1.48.52,1.48,1.26s-.71,1.38-1.93,1.38a3,3,0,0,1-1.82-.55l.43-.71a2.24,2.24,0,0,0,1.4.44c.63,0,1-.19,1-.51s-.23-.37-.74-.44L52.05,43c-.94-.13-1.46-.55-1.46-1.24s.69-1.35,1.76-1.35a3.16,3.16,0,0,1,1.72.44ZM65,41.32a1.32,1.32,0,0,0-.53.1,1.34,1.34,0,0,0-.42.28,1.28,1.28,0,0,0-.28.43,1.38,1.38,0,0,0-.1.55,1.42,1.42,0,0,0,.1.55,1.28,1.28,0,0,0,.28.43,1.34,1.34,0,0,0,.42.28A1.51,1.51,0,0,0,65,44a1.46,1.46,0,0,0,.52-.1,1.15,1.15,0,0,0,.42-.28,1.17,1.17,0,0,0,.29-.43,1.63,1.63,0,0,0,.1-.55,1.58,1.58,0,0,0-.1-.55,1.17,1.17,0,0,0-.29-.43,1.15,1.15,0,0,0-.42-.28,1.27,1.27,0,0,0-.52-.1m0-.87a2.3,2.3,0,0,1,.91.17,2.19,2.19,0,0,1,.72.47,2.29,2.29,0,0,1,.48.7,2.35,2.35,0,0,1,.17.89,2.3,2.3,0,0,1-.17.88,2.17,2.17,0,0,1-1.2,1.18,2.49,2.49,0,0,1-.91.17,2.46,2.46,0,0,1-.91-.17,2.25,2.25,0,0,1-.72-.47,2.17,2.17,0,0,1-.48-.71,2.3,2.3,0,0,1-.17-.88,2.35,2.35,0,0,1,.17-.89,2.13,2.13,0,0,1,.48-.7,2.09,2.09,0,0,1,.72-.47,2.27,2.27,0,0,1,.91-.17M41.13,42.66A1.28,1.28,0,1,1,42.41,44a1.27,1.27,0,0,1-1.28-1.35m3.42,0V40.55h-.92v.52a1.59,1.59,0,0,0-1.33-.62,2.22,2.22,0,0,0,0,4.43,1.59,1.59,0,0,0,1.33-.62v.51h.92Zm-5.17,2.11V42.13a1.57,1.57,0,0,0-1.66-1.68,1.65,1.65,0,0,0-1.49.75,1.54,1.54,0,0,0-1.39-.75,1.41,1.41,0,0,0-1.24.62v-.52h-.91v4.22h.92V42.43a1,1,0,0,1,1-1.12c.6,0,.91.4.91,1.12v2.34h.93V42.43a1,1,0,0,1,1-1.12c.63,0,.93.4.93,1.12v2.34Z"/><path class="cls-5" d="M98,2V48H2V2H98m2-2H0V50H100V0Z"/></svg>