<svg id="Calque_1" data-name="Calque1" xmlns="http://www.w3.org/2000/svg" viewBox="0 0 100 50"><defs><style>.cls-1{fill:#ff5f00;}.cls-2{fill:#eb001b;}.cls-3{fill:#f79e1b;}.cls-4{fill:#b2b2b2;}</style></defs><g id="layer1"><g id="g13"><g id="g15"><path d="M33.61,44.91V42.26a1.56,1.56,0,0,0-1.69-1.68,1.73,1.73,0,0,0-1.5.75A1.54,1.54,0,0,0,29,40.58a1.42,1.42,0,0,0-1.23.61v-.53h-.93v4.25h.93V42.57c0-.76.39-1.11,1-1.11s.93.4.93,1.11v2.34h.93V42.57a1,1,0,0,1,1-1.11c.62,0,.93.4.93,1.11v2.34Zm13.76-4.25H45.86V39.38h-.93v1.28h-.84v.84h.84v2c0,1,.4,1.55,1.46,1.55a2.43,2.43,0,0,0,1.15-.31l-.26-.8a1.47,1.47,0,0,1-.8.23c-.44,0-.62-.27-.62-.71V41.5h1.51Zm7.87-.08a1.24,1.24,0,0,0-1.1.61v-.53h-.93v4.25h.93V42.52c0-.71.31-1.1.88-1.1a2.89,2.89,0,0,1,.58.08l.26-.88a3.18,3.18,0,0,0-.62,0ZM43.34,41a3,3,0,0,0-1.72-.44c-1.07,0-1.77.53-1.77,1.37s.53,1.1,1.46,1.24l.44,0c.48.09.75.22.75.44s-.35.53-1,.53a2.47,2.47,0,0,1-1.42-.44l-.44.71a3.14,3.14,0,0,0,1.81.53c1.24,0,2-.58,2-1.37s-.58-1.15-1.46-1.28l-.44-.05c-.4,0-.71-.13-.71-.4s.31-.48.8-.48a3.18,3.18,0,0,1,1.32.35l.4-.75ZM68,40.58a1.27,1.27,0,0,0-1.11.61v-.53H66v4.25h.92V42.52c0-.71.31-1.1.89-1.1a2.7,2.7,0,0,1,.57.08l.27-.88a3.23,3.23,0,0,0-.62,0ZM56.17,42.79A2.13,2.13,0,0,0,58.43,45a2.16,2.16,0,0,0,1.5-.49l-.44-.75a1.76,1.76,0,0,1-1.11.4,1.25,1.25,0,0,1-1.28-1.37,1.3,1.3,0,0,1,1.28-1.37,1.81,1.81,0,0,1,1.11.39l.44-.75a2.2,2.2,0,0,0-1.5-.48,2.12,2.12,0,0,0-2.26,2.21Zm8.59,0V40.66h-.93v.53a1.61,1.61,0,0,0-1.33-.61,2.21,2.21,0,0,0,0,4.42,1.49,1.49,0,0,0,1.33-.62v.53h.93V42.79Zm-3.41,0a1.29,1.29,0,1,1,2.57,0,1.29,1.29,0,1,1-2.57,0ZM50.24,40.58a2.21,2.21,0,0,0,0,4.42A2.67,2.67,0,0,0,52,44.42l-.44-.66a2.08,2.08,0,0,1-1.24.44,1.19,1.19,0,0,1-1.28-1h3.14v-.36a2,2,0,0,0-1.95-2.25Zm0,.79a1,1,0,0,1,1.07,1H49.09a1.12,1.12,0,0,1,1.15-1ZM73.3,42.79V39h-.93v2.21A1.61,1.61,0,0,0,71,40.58,2.21,2.21,0,0,0,71,45a1.49,1.49,0,0,0,1.33-.62v.53h.93V42.79Zm-3.41,0a1.29,1.29,0,1,1,2.57,0,1.29,1.29,0,1,1-2.57,0Zm-31.06,0V40.66H37.9v.53a1.61,1.61,0,0,0-1.33-.61,2.21,2.21,0,0,0,0,4.42,1.49,1.49,0,0,0,1.33-.62v.53h.93V42.79Zm-3.45,0a1.28,1.28,0,1,1,2.56,0,1.28,1.28,0,1,1-2.56,0Z"/></g><rect id="rect19" class="cls-1" x="43.03" y="8.41" width="13.94" height="25.04"/><path class="cls-2" d="M43.92,20.93A16,16,0,0,1,50,8.41a15.92,15.92,0,1,0-9.83,28.45A15.81,15.81,0,0,0,50,33.45,15.9,15.9,0,0,1,43.92,20.93Z"/><path id="path22" class="cls-3" d="M75.77,20.93A15.91,15.91,0,0,1,50,33.45a16,16,0,0,0,0-25A15.91,15.91,0,0,1,75.77,20.93Z"/></g></g><path class="cls-4" d="M98,2V48H2V2H98m2-2H0V50H100V0Z"/></svg>