<?xml version="1.0" encoding="utf-8"?>
<!-- Generator: Adobe Illustrator 24.0.1, SVG Export Plug-In . SVG Version: 6.00 Build 0)  -->
<svg version="1.1" id="Layer_1" xmlns="http://www.w3.org/2000/svg" xmlns:xlink="http://www.w3.org/1999/xlink" x="0px" y="0px"
	 viewBox="0 0 24 24" style="enable-background:new 0 0 23.8 24;" xml:space="preserve">
<style type="text/css">
	.st0{fill:none;}
	.st1{fill:#435C71;}
</style>
<g>
	<ellipse transform="matrix(0.3827 -0.9239 0.9239 0.3827 -2.7679 13.9153)" class="st0" cx="9" cy="9" rx="5" ry="5"/>
	<path class="st1" d="M22.4,19.8L16.6,14c0.9-1.4,1.5-3.1,1.5-4.9c0-5-4-9-9-9S0,4,0,9s4,9,9,9c1.7,0,3.3-0.5,4.7-1.3l5.8,5.8
		c0.4,0.4,0.9,0.6,1.4,0.6s1-0.2,1.4-0.6C23.2,21.8,23.2,20.5,22.4,19.8z M4,9c0-2.8,2.3-5,5-5c2.8,0,5,2.3,5,5c0,2.8-2.3,5-5,5
		C6.3,14.1,4,11.8,4,9z"/>
</g>
</svg>
