<?xml version="1.0" encoding="utf-8"?>
<!-- Generator: Adobe Illustrator 24.0.1, SVG Export Plug-In . SVG Version: 6.00 Build 0)  -->
<svg version="1.1" id="Layer_1" xmlns="http://www.w3.org/2000/svg" xmlns:xlink="http://www.w3.org/1999/xlink" x="0px" y="0px"
	 viewBox="0 0 61.8 72" style="enable-background:new 0 0 61.8 72;" xml:space="preserve">
<style type="text/css">
	.st0{ fill:#435C71; }
</style>
<g id="shield" transform="translate(1.963 2)">
	<path id="Path_65" class="st0" d="M29,21c-7.2,0-13,5.8-13,13s5.8,13,13,13s13-5.8,13-13c0,0,0,0,0,0C41.9,26.9,36.1,21.1,29,21z
		 M36.7,31.6l-9.3,9.3c-0.8,0.8-2,0.8-2.8,0c0,0,0,0,0,0L21,37.3c-0.8-0.7-0.9-2-0.2-2.8c0.7-0.8,2-0.9,2.8-0.2
		c0.1,0.1,0.1,0.1,0.2,0.2l2.1,2.1l7.9-7.9c0.8-0.7,2.1-0.6,2.8,0.2C37.3,29.7,37.3,30.8,36.7,31.6L36.7,31.6z"/>
	<path class="st0" d="M29,70c-0.5,0-0.9,0-1.4-0.1c-0.3-0.1-0.6-0.1-0.9-0.3c-6.2-2-12-5.5-16.8-9.9C6,55.9,3,51.2,1.2,46.1
		c-3.4-9.3-3.3-19.5-3.1-27.6l0-0.1c0-0.7,0.1-1.4,0.1-2.1c0.1-4.8,3.9-8.8,8.7-9c7.3-0.4,13-2.8,17.8-7.5l0.1-0.1
		c2.4-2.2,6.2-2.2,8.6,0l0.1,0.1c4.8,4.7,10.4,7.1,17.8,7.5c4.8,0.3,8.6,4.2,8.7,9c0,0.8,0,1.4,0.1,2.1l0,0.1
		c0.2,8.2,0.3,18.3-3.1,27.7c-1.8,5.1-4.8,9.8-8.7,13.5c-4.8,4.5-10.6,8-16.8,10c-0.3,0.1-0.6,0.2-0.9,0.2C29.9,70,29.4,70,29,70z
		 M29,2c-0.6,0-1.1,0.2-1.6,0.6C21.8,8,15.4,10.8,7,11.2c-2.7,0.2-4.8,2.4-4.9,5.1c0,0.8,0,1.5-0.1,2.2l0,0
		c-0.1,7.8-0.3,17.6,2.9,26.2c1.6,4.5,4.3,8.7,7.7,12.1c4.3,4.1,9.6,7.2,15.3,9c0.2,0.1,0.3,0.1,0.4,0.1c0.4,0.1,0.8,0.1,1.1,0
		c0.1,0,0.3-0.1,0.4-0.1c5.7-1.9,11-5,15.3-9.1c3.4-3.3,6.1-7.5,7.7-12c3.2-8.7,3-18.4,2.9-26.2l0-0.1c0-0.6,0-1.3-0.1-2.1
		c0-2.7-2.2-4.9-4.9-5.1C42.6,10.8,36.1,8,30.6,2.6C30.1,2.2,29.5,2,29,2z M27,53v-0.1C17.4,51.8,10,43.8,10,34
		c0-10.4,8.5-18.9,18.9-18.9c10.4,0,19,8.5,19,18.9c0,10.4-8.5,18.9-18.9,19L27,53z M29,19.1C20.7,19.1,14,25.8,14,34S20.7,49,29,49
		h0.3c8.1-0.2,14.6-6.8,14.6-15C43.9,25.8,37.2,19.1,29,19.1z"/>
</g>
</svg>
