<svg xmlns="http://www.w3.org/2000/svg" width="25" height="30" viewBox="0 0 25 30"><defs><style>.a{fill:#fff;}</style></defs><g transform="translate(-40 0)"><path class="a" d="M64.59,4.858,53.106.09a1.172,1.172,0,0,0-.9,0L40.723,4.858A1.172,1.172,0,0,0,40,5.94v5.8A19.625,19.625,0,0,0,52.213,29.913a1.172,1.172,0,0,0,.886,0A19.625,19.625,0,0,0,65.313,11.737V5.94A1.172,1.172,0,0,0,64.59,4.858Zm-1.621,6.879A17.285,17.285,0,0,1,52.656,27.555,17.286,17.286,0,0,1,42.344,11.737V6.723L52.656,2.441,62.969,6.723Zm-11.608,3.95L56.4,10.65a1.172,1.172,0,1,1,1.657,1.657L52.19,18.173a1.172,1.172,0,0,1-1.657,0L47.257,14.9a1.172,1.172,0,0,1,1.657-1.657Z" transform="translate(0 0)"/></g></svg>