<svg id="Calque_1" data-name="Calque1" xmlns="http://www.w3.org/2000/svg" viewBox="0 0 100 50"><defs><style>.cls-1{fill:#00579f;}.cls-2{fill:#faa61a;}.cls-3{fill:#b2b2b2;}</style></defs><g id="g4158"><polygon id="polygon9" class="cls-1" points="45.67 35.2 40.42 35.2 43.7 14.87 48.96 14.87 45.67 35.2"/><path id="path11" class="cls-1" d="M64.73,15.37A12.78,12.78,0,0,0,60,14.5c-5.19,0-8.84,2.77-8.86,6.73,0,2.92,2.61,4.54,4.6,5.51s2.73,1.64,2.73,2.53c0,1.36-1.65,2-3.16,2a10.43,10.43,0,0,1-4.93-1.08l-.69-.33L49,34.42a16,16,0,0,0,5.86,1.08c5.52,0,9.11-2.73,9.15-6.94,0-2.32-1.38-4.09-4.41-5.54-1.84-.93-3-1.56-3-2.51s.95-1.75,3-1.75a9,9,0,0,1,3.92.78l.47.22.72-4.39Z"/><path id="path13" class="cls-1" d="M71.71,28c.44-1.17,2.1-5.69,2.1-5.69s.44-1.19.69-1.95l.37,1.75L76.08,28ZM78.2,14.87H74.14a2.59,2.59,0,0,0-2.75,1.69L63.58,35.2H69.1s.91-2.51,1.1-3.05H77c.15.71.63,3.05.63,3.05h4.86L78.2,14.87Z"/><path id="path15" class="cls-1" d="M36,14.87,30.88,28.73l-.56-2.81a15.56,15.56,0,0,0-7.27-8.52l4.72,17.78h5.55l8.27-20.31Z"/><path id="path17" class="cls-2" d="M26.1,14.87H17.64l-.08.41C24.15,17,28.52,21,30.32,25.92l-1.84-9.34a2.17,2.17,0,0,0-2.38-1.71Z"/></g><path class="cls-3" d="M98,2V48H2V2H98m2-2H0V50H100V0Z"/></svg>